<svg xmlns="http://www.w3.org/2000/svg" width="28" height="32" viewBox="0 0 35.961 40"><path d="M2.85 7.5h.924v14.067H2.85zm1.939 0h.922v14.067h-.922zm4.678 0h.926v14.067h-.926zm1.916 0h.926v14.067h-.926zm1.873 0h.922v14.067h-.922zm7.572 0h.92v14.067h-.92zm1.891 0h.924v14.067h-.924zm1.875 0h.922v14.067h-.922zm1.892 0h.924v14.067h-.924zm4.746 0h.92v14.067h-.92zm1.873 0h.924v14.067h-.924zm1.891 0h.924v14.067h-.924zM0 7.5h1.902v14.067H0zm6.662 0h1.902v14.067H6.662zm8.486 0h1.904v14.067h-1.904zm2.829 0h1.908v14.067h-1.908zm10.41 0h1.9v14.067h-1.9z" fill="#221E20"/><path d="M5.912 27.871a2.721 2.721 0 0 0-.43-.25c.031-.023.064-.047.092-.065.559-.422.848-1.036.846-1.772.002-.643-.244-1.193-.721-1.587-.475-.399-1.1-.593-1.84-.593H.74l-.74.001v8.731h3.6c.979 0 1.768-.225 2.34-.698.58-.47.873-1.146.867-1.96.005-.758-.301-1.379-.895-1.807zm-.592 1.758c-.002.508-.139.84-.387 1.047-.252.213-.688.338-1.312.338H1.49v-2.57h2.049c.658 0 1.123.107 1.389.298.261.182.39.452.392.887zm-3.83-2.458V24.93h1.99c.545-.004.922.098 1.131.257.211.158.32.392.322.774 0 .45-.125.732-.359.911-.232.188-.645.301-1.24.299H1.49zm11.797-.521c-.551-.633-1.299-.953-2.191-.947-.887-.006-1.631.314-2.182.947-.553.63-.83 1.457-.83 2.455 0 .99.277 1.818.83 2.447.551.633 1.295.953 2.182.947h.006c.891 0 1.637-.32 2.186-.947.555-.629.828-1.457.828-2.447-.001-.998-.274-1.825-.829-2.455zm-.902 4.158l-.143-.106c-.295.381-.654.556-1.146.561-.492-.005-.854-.18-1.143-.561-.287-.383-.439-.906-.439-1.596 0-.693.152-1.215.439-1.6.289-.385.65-.56 1.143-.567.492.008.852.183 1.146.567.287.385.445.906.445 1.6 0 .688-.158 1.213-.445 1.594l.143.108zm4.011-7.204h-.689v8.732h1.383v-8.732zm8.262 5.507c0-1-.258-1.825-.779-2.459-.518-.629-1.227-.955-2.068-.953-.924-.002-1.686.325-2.242.972-.557.644-.826 1.511-.824 2.566-.002.99.254 1.796.785 2.386.525.587 1.264.877 2.156.877h.012c.746.002 1.377-.182 1.869-.561.494-.38.82-.936.977-1.633l.027-.112h-1.389l-.027.145c-.055.303-.18.431-.441.628-.26.195-.561.295-.918.295-.592-.005-.975-.174-1.223-.51-.182-.246-.312-.613-.365-1.103h4.43l.02-.538zm-2.89-2.135c.498.004.838.155 1.08.456.193.24.324.586.367 1.033h-2.996c.062-.395.197-.711.391-.955.296-.36.663-.531 1.158-.534zm7.113.098v-1.191h-.967v-1.709h-1.379v1.709h-.846v1.191h.846v3.843c.002.503.088.884.324 1.141.236.253.607.353 1.074.353.184 0 .439-.027.795-.081l.152-.022v-1.124h-.543a.583.583 0 0 1-.332-.083c-.066-.057-.088-.096-.092-.183v-3.843h.968zm6.258-.424c-.555-.633-1.299-.953-2.193-.947-.885-.006-1.627.314-2.18.947-.559.63-.828 1.457-.828 2.455 0 .99.27 1.818.828 2.447.553.633 1.295.949 2.18.947h.012c.889 0 1.635-.314 2.182-.947.555-.629.824-1.457.822-2.447.001-.998-.269-1.825-.823-2.455zm-.905 4.158l-.143-.106c-.293.381-.65.556-1.146.561-.49-.005-.854-.18-1.141-.561-.289-.383-.439-.908-.439-1.596 0-.693.15-1.215.439-1.6s.65-.56 1.141-.567c.496.008.854.183 1.146.567.289.385.441.906.441 1.6 0 .688-.152 1.213-.441 1.594l.143.108z" fill="#010101"/></svg>