<?xml version="1.0" encoding="UTF-8"?>
<svg width="48px" height="48px" viewBox="0 0 48 48" version="1.1" xmlns="http://www.w3.org/2000/svg" xmlns:xlink="http://www.w3.org/1999/xlink">
    <!-- Generator: Sketch 47.1 (45422) - http://www.bohemiancoding.com/sketch -->
    <title>dinero en cuenta</title>
    <desc>Created with Sketch.</desc>
    <defs></defs>
    <g id="Symbols" stroke="none" stroke-width="1" fill="none" fill-rule="evenodd">
        <g id="dinero-en-cuenta">
            <g id="Group-61">
                <path d="M24,47.5 C36.9786916,47.5 47.5,36.9786916 47.5,24 C47.5,11.0213084 36.9786916,0.5 24,0.5 C11.0213084,0.5 0.5,11.0213084 0.5,24 C0.5,36.9786916 11.0213084,47.5 24,47.5 Z" id="Oval-Copy-2" stroke="#EEEEEE"></path>
                <g id="icono_dinero_en_cuenta" transform="translate(17.000000, 11.000000)">
                    <rect id="Rectangle-55" fill="#5697FA" x="4.19761448e-13" y="0" width="14" height="26" rx="4.62"></rect>
                    <rect id="Rectangle-55" fill="#0864EE" x="4.19761448e-13" y="5" width="14" height="16"></rect>
                    <path d="M5.5,2 L8.5,2 L8.5,2 C8.77614237,2 9,2.22385763 9,2.5 L9,2.5 L9,2.5 C9,2.77614237 8.77614237,3 8.5,3 L5.5,3 L5.5,3 C5.22385763,3 5,2.77614237 5,2.5 L5,2.5 L5,2.5 C5,2.22385763 5.22385763,2 5.5,2 Z" id="Rectangle-path" fill="#0864EE"></path>
                    <circle id="Oval-25" fill="#FFFFFF" cx="7" cy="13" r="4.5"></circle>
                    <path d="M6.71750482,15.1191184 L6.71750482,15.4654755 C6.71951656,15.639763 6.86107612,15.7796958 7.0343411,15.7786707 C7.11689834,15.779171 7.19619187,15.7462745 7.25439725,15.6873762 C7.31260263,15.6284779 7.34483604,15.5485197 7.3438517,15.4654755 L7.3438517,15.1393839 C8.13868955,15.04911 8.64782532,14.5645786 8.64782532,13.8958146 C8.64782532,13.2270506 8.23941785,12.8198968 7.28341472,12.5803946 L6.8017503,12.4514318 C6.33473728,12.2985188 6.25232321,12.1474482 6.25232321,11.9245269 C6.25232321,11.6573898 6.45194839,11.4878959 6.8017503,11.454734 C6.84445678,11.4525833 6.88724348,11.4525833 6.92994996,11.454734 C7.04415608,11.4534268 7.15804707,11.4670512 7.26876333,11.4952652 C7.48548426,11.5568416 7.69350562,11.6459936 7.88778452,11.76056 C7.95037903,11.8002438 8.02258945,11.8219084 8.09656681,11.823199 C8.19966476,11.8251856 8.29919853,11.785243 8.37262844,11.7124164 C8.44605835,11.6395898 8.48717234,11.5400401 8.48666004,11.4363108 C8.48835213,11.2940854 8.40851694,11.1635811 8.2815406,11.1010076 C8.00055293,10.9204139 7.68358387,10.8040661 7.35300882,10.7601775 L7.35300882,10.4635632 C7.35399316,10.3805189 7.32175975,10.3005607 7.26355437,10.2416624 C7.20534899,10.1827641 7.12605546,10.1498677 7.04349822,10.1503679 C6.87023324,10.1493428 6.72867368,10.2892756 6.72666193,10.4635632 L6.72666193,10.7528082 C5.94281262,10.8320282 5.44466539,11.3055057 5.44466539,11.9724273 C5.44466539,12.639349 5.83475862,13.0372912 6.79076176,13.2878474 L7.27242618,13.4039138 C7.75225917,13.5531421 7.84566177,13.7152667 7.84566177,13.943715 C7.84566177,14.2182215 7.6460366,14.3932423 7.28341472,14.4319312 L7.15887791,14.4319312 C7.04232554,14.432472 6.92593155,14.4232283 6.81090742,14.4042963 C6.49204846,14.3310989 6.19117272,14.1938649 5.92632981,14.0008271 C5.8125105,13.9101591 5.65777576,13.8913185 5.52573931,13.9520508 C5.39370287,14.0127832 5.30664752,14.1428392 5.300363,14.2887509 C5.29407847,14.4346627 5.36962537,14.5718057 5.49594525,14.6437985 C5.85806234,14.9009127 6.27764851,15.0641775 6.71750482,15.1191184 L6.71750482,15.1191184 Z" id="Shape" fill="#0864EE"></path>
                    <circle id="Oval-25" fill="#0864EE" cx="7" cy="23" r="1"></circle>
                </g>
            </g>
        </g>
    </g>
</svg>