<svg width="66" height="32" viewBox="0 0 290 140" fill="none" xmlns="http://www.w3.org/2000/svg"><g clip-path="url(#clip0_313_29)"><path fill-rule="evenodd" clip-rule="evenodd" d="M269.285 61.798h-6.99l-.578 2.562h7.568c6.924 0 9.26 1.883 9.26 7.465v2.701c-1.717-1.757-4.753-2.647-9.043-2.647-6.844 0-10.171 2.965-10.171 9.065v.444c0 5.719 3.277 8.62 9.737 8.62h1.739c6.844 0 10.316-2.901 10.316-8.62v-9.563c0-7.122-3.43-10.027-11.838-10.027zm9.26 19.96c0 4.092-2.189 5.687-7.81 5.687h-1.087c-5.424 0-7.738-1.812-7.738-6.057v-.444c0-4.611 2.205-6.577 7.375-6.577h.435c6.186 0 8.825 1.9 8.825 6.354v1.037zM89.811 66.824l1.374-6.844H79.352v-9.349l-8.308 1.283v27.925c0 9.654 3.705 12.527 13.806 12.527h4.422l1.376-6.784h-5.2c-4.602 0-6.097-1.159-6.097-6.293V66.824h10.46zM32.73 47.392v30.004c0 11.121 5.02 15.765 15.958 15.765 11.356 0 16.377-4.522 16.377-15.705v-2.871c0-10.51-4.663-15.644-14.823-15.644-3.228 0-6.754.672-9.145 2.566v-15.46l-8.367 1.344zm16.257 18.27c5.737 0 7.77 2.323 7.77 9.227v2.567c0 6.721-2.033 9.044-7.89 9.044-5.857 0-7.89-2.323-7.89-9.105v-3.483c0-6.172 2.033-8.25 8.01-8.25zm60.905-6.721c-10.938 0-15.96 4.705-15.96 15.46v1.65c0 10.204 4.364 15.153 14.644 15.153 3.287 0 6.575-.61 8.906-2.505v1.224c0 5.744-2.45 7.636-8.189 7.636h-3.435c-1.964.036-2.856.392-4.04 2.376l-.006-.003c-9.855 15.946-26.965 25.687-45.61 25.687-29.752 0-53.955-24.744-53.955-55.16 0-30.417 24.203-55.16 53.954-55.16 20.898 0 39.908 12.372 48.802 31.627h2.479C98.419 26.308 78.323 13 56.203 13 25.212 13 0 38.776 0 70.459c0 31.683 25.213 57.459 56.202 57.459 18.226 0 35.045-8.934 45.53-23.759h8.041c10.579 0 16.018-4.094 16.018-14.543V73.851c0-10.389-5.2-14.91-15.898-14.91zm7.65 18.148c0 5.744-1.972 7.516-7.65 7.516-6.396 0-7.651-2.26-7.651-8.92v-1.04c0-6.6 1.136-8.983 7.651-8.983 6.395 0 7.65 2.323 7.65 9.044v2.383zm168.904 12.918h2.58V51.198h-2.579v38.81h-.001zm-58.098-25.646l.579-2.563h-11.534V54.47l-2.651.484v25.099c0 7.147 2.619 9.805 9.663 9.805h3.809l.482-2.562h-4.291c-5.308 0-7.012-1.723-7.012-7.096V64.36h10.956-.001zm23.877 14.507c0 6.605-2.021 8.725-8.317 8.725-6.11 0-8.173-2.201-8.173-8.725v-17.07h-2.651v17.07c0 8.123 3.035 11.287 10.823 11.287 7.74 0 10.897-3.269 10.897-11.287v-17.07h-2.579v17.07zm-58.324-1.853v-2.373c0-7.591 2.537-10.281 9.695-10.281h6.049l.576-2.563h-6.624c-8.538 0-12.347 3.96-12.347 12.843v2.374c0 8.883 3.809 12.844 12.347 12.844h6.118l.579-2.562h-6.697c-6.978 0-9.695-2.883-9.695-10.282h-.001zm-19.087-15.217h-6.991l-.577 2.562h7.568c6.869 0 9.186 1.883 9.186 7.465v2.701c-1.715-1.757-4.751-2.647-9.042-2.647-6.844 0-10.171 2.965-10.171 9.065v.444c0 5.719 3.3 8.62 9.808 8.62h1.74c6.799 0 10.245-2.901 10.245-8.62v-9.563c0-7.122-3.409-10.027-11.766-10.027zM184 81.758c0 4.146-2.097 5.687-7.737 5.687h-1.087c-5.473 0-7.81-1.812-7.81-6.057v-.444c0-4.611 2.206-6.577 7.375-6.577h.435c6.185 0 8.824 1.9 8.824 6.354v1.037zm-35.143-20.405c-8.175 0-11.983 4.13-11.983 12.992v24.112h2.578V86.076c1.867 2.48 5.346 3.931 9.55 3.931 8.138 0 11.767-4.008 11.767-12.992v-2.743c0-8.935-3.674-12.92-11.912-12.92v.001zm9.26 15.661c0 7.604-2.47 10.43-9.115 10.43-6.289 0-9.477-3.135-9.477-9.318v-3.78c0-7.41 2.704-10.432 9.332-10.432 6.663 0 9.26 2.904 9.26 10.358v2.742z" fill="#001E61"/></g><defs><clipPath id="clip0_313_29"><path fill="#fff" transform="translate(0 13)" d="M0 0h289.684v115H0z"/></clipPath></defs></svg>