<svg width="61" height="32" viewBox="0 0 309 160" fill="none" xmlns="http://www.w3.org/2000/svg"><g clip-path="url(#clip0)" fill-rule="evenodd" clip-rule="evenodd"><path d="M94.527 68.225l-8.002 19.943H97.6l-3.035-20.024-.037.081zm-42.393 45.782L84.96 46.42h24.819l13.839 67.587h-21.787l-1.606-9.008H79.087l-4.863 9.008h-22.09zm81.801 0l9.509-67.587h21.955l-9.505 67.587h-21.959zm146.023-45.863l-8.034 20.024h11.07l-3.036-20.024zm-42.43 45.863l32.831-67.587h24.814l13.845 67.587h-21.793l-1.601-9.008h-21.143l-4.863 9.008h-22.09zm-48.537-31.604h27.512l18.852 31.221h-27.517l-18.847-31.22z" fill="#0070AF"/><path d="M191.851 77.608h28.436l24.698-31.089h-28.437l-24.697 31.09zm-28.433 36.205h28.432l24.698-31.468h-28.437l-24.693 31.468z" fill="#F6822A"/><path d="M173.672 46.14h26.538l18.183 31.468h-26.542L173.672 46.14zM52.783 48.837l-2.11 19.88c-8.093-11.164-26.849-3.46-28.321 10.447-1.872 17.652 16.18 21.766 26.002 11.372l-2.116 19.925c-2.932 1.439-5.799 2.558-8.629 3.311a35.226 35.226 0 01-8.433 1.218c-3.519.077-6.707-.293-9.579-1.101-2.872-.793-5.471-2.057-7.77-3.762-4.436-3.243-7.643-7.366-9.618-12.382C.234 92.71-.416 87.03.257 80.685c.542-5.102 1.827-9.753 3.875-13.97 2.03-4.214 4.842-8.048 8.422-11.522 3.385-3.31 7.072-5.81 11.06-7.506 3.974-1.682 8.31-2.58 12.998-2.68 2.8-.058 5.547.222 8.213.867 2.68.64 5.324 1.642 7.958 2.963z" fill="#0070AF"/></g><defs><clipPath id="clip0"><path fill="#fff" d="M0 0h309v160H0z"/></clipPath></defs></svg>