<svg width="53" height="32" viewBox="0 0 265 160" fill="none" xmlns="http://www.w3.org/2000/svg"><path d="M110.696 137.961L0 138v-.266c0-.146.177-1.093.392-2.104.216-1.012.552-2.621.746-3.576.194-.955.526-2.577.738-3.606l.781-3.806c.218-1.065.56-2.748.76-3.74.2-.992.532-2.614.74-3.606.208-.992.562-2.705.787-3.807.225-1.102.567-2.784.76-3.739.193-.955.5-2.428.681-3.273.182-.844.414-1.986.516-2.537.101-.551.43-2.174.73-3.606.3-1.433.631-3.056.736-3.606.105-.551.437-2.174.74-3.607.301-1.432.633-3.055.736-3.606.104-.55.437-2.174.741-3.606s.632-3.025.73-3.54c.097-.513.362-1.836.59-2.938.228-1.102.66-3.175.958-4.608.3-1.432.81-3.926 1.137-5.542.326-1.616.716-3.54.866-4.274a2148.593 2148.593 0 011.337-6.478 2048.212 2048.212 0 001.552-7.546c.194-.955.524-2.548.734-3.54.21-.991.572-2.734.804-3.873.231-1.138.62-2.881.862-3.873.243-.992.586-2.194.763-2.671.177-.478.664-1.513 1.084-2.3l.763-1.432.693-.906a23.842 23.842 0 011.513-1.748 23.751 23.751 0 011.69-1.55c.48-.39 1.173-.915 1.541-1.168a25.227 25.227 0 011.608-.983 32.45 32.45 0 011.608-.838 31.825 31.825 0 011.675-.702c.552-.213 1.607-.57 2.344-.793.737-.223 2.12-.56 3.074-.748.953-.188 2.46-.439 3.35-.558l1.614-.216 110.763-.042L265 23v.265c0 .146-.178 1.093-.395 2.105-.217 1.011-.58 2.74-.806 3.842-.227 1.102-.557 2.695-.735 3.54-.177.845-.513 2.467-.746 3.606-.233 1.139-.592 2.882-.798 3.873-.205.992-.537 2.615-.738 3.606a657.15 657.15 0 01-.743 3.606c-.208.992-.53 2.555-.716 3.473-.186.918-.522 2.571-.748 3.673a645.283 645.283 0 01-.805 3.873 623.049 623.049 0 00-.735 3.54l-.748 3.673a737.924 737.924 0 01-.803 3.873 498.191 498.191 0 00-.719 3.472 2673.848 2673.848 0 01-1.497 7.346c-.181.882-.505 2.445-.719 3.473-.214 1.028-.581 2.801-.814 3.94a2998.84 2998.84 0 01-.743 3.606c-.175.845-.503 2.438-.728 3.54-.226 1.101-.584 2.844-.797 3.873-.213 1.028-.547 2.651-.742 3.606-.195.955-.535 2.608-.754 3.673l-.797 3.873c-.218 1.065-.546 2.658-.728 3.539-.182.882-.514 2.505-.739 3.607-.224 1.101-.59 2.838-.811 3.858l-.404 1.855-.48 1.284a27.01 27.01 0 01-.883 2.085c-.222.44-.673 1.218-1.002 1.728a22.37 22.37 0 01-1.021 1.451c-.232.289-.931 1.033-1.552 1.655l-1.13 1.131-1.087.77c-.598.424-1.242.855-1.432.958-.189.103-.909.469-1.601.814-.691.345-1.668.785-2.17.976-.502.192-1.497.518-2.211.726-.713.207-1.478.411-1.699.453-.221.042-.988.201-1.705.352-.717.151-2.164.377-3.215.502l-1.912.227-110.696.04zm-39.384-28.545h2.88l.082-.211c.045-.117.081-.39.081-.608 0-.217.095-1.009.211-1.758.117-.75.389-2.475.606-3.834l.721-4.541c.18-1.139.4-2.596.488-3.24.089-.642.197-1.168.24-1.168.044 0 .23.284.414.631l.335.632.742.746.743.746.914.364.915.365 1.09.141 1.089.14 1.383-.084 1.383-.084 1.497-.387 1.498-.386.803-.366c.443-.2 1.226-.64 1.742-.974l.938-.61.874-.87c.481-.48 1.16-1.248 1.508-1.708.348-.46.632-.87.632-.911 0-.041.171-.326.38-.633.21-.307.637-1.16.95-1.894.315-.734.805-2.057 1.09-2.938l.52-1.603.268-1.388c.148-.764.338-2.026.422-2.805l.154-1.416-.089-1.203-.089-1.202-.28-1.202-.279-1.202-.452-.9-.453-.9-.874-.923-.874-.924-1.034-.533-1.034-.533-1.14-.272-1.138-.272-1.139-.083-1.138-.083-1.269.145-1.269.145-1.035.264-1.035.264-.9.415c-.495.228-1.214.616-1.6.861-.385.246-.782.528-.882.628-.1.1-.341.285-.534.41l-.352.23.246-1.173c.135-.645.248-1.248.25-1.34l.006-.167h-4.912l-.43 2.705c-.238 1.487-.612 3.786-.832 5.108a2940.184 2940.184 0 01-1.474 8.748c-.22 1.286-.581 3.33-.805 4.542l-.728 3.94-.739 4.006c-.23 1.25-.599 3.233-.82 4.408a519.132 519.132 0 01-.802 4.14 136.072 136.072 0 01-.471 2.304l-.073.301h2.88zm12.401-15.442l-1.118.067-.731-.129-.732-.129-.742-.338-.743-.338-.518-.493-.52-.494-.299-.668a9.41 9.41 0 01-.47-1.387l-.17-.718.068-1.152.068-1.15.346-1.804c.19-.991.53-2.855.757-4.14.227-1.286.57-3.17.763-4.186l.35-1.848.769-.637a12.46 12.46 0 011.487-1.044l.719-.407.938-.29.937-.288 1.206-.071 1.206-.07.982.208.981.209.693.318.693.318.581.582.581.582.314.617a9.09 9.09 0 01.538 1.475l.224.859-.068 2.538-.07 2.537-.343 1.5a31.91 31.91 0 01-.8 2.805l-.457 1.305-.56 1.056c-.307.581-.78 1.366-1.053 1.745-.272.378-.706.869-.963 1.09-.258.22-.69.565-.96.766l-.491.365-1.137.386-1.137.386-1.119.067zm27.82 3.671l1.474.017 1.474-.134c.81-.074 2.136-.227 2.947-.34a50.257 50.257 0 003.112-.567l1.637-.36.082-.601a48.08 48.08 0 01.409-2.19l.327-1.588-.072-.072-.072-.072-.501.24c-.276.134-1.133.45-1.906.704l-1.406.462-1.475.284-1.475.285-2.344.005-2.345.004-.804-.256a12.65 12.65 0 01-1.445-.572l-.641-.316-.529-.477-.529-.477-.413-.719-.413-.72-.259-.902-.259-.902-.002-1.67-.002-1.67.23-1.49.23-1.49 2.016-.094 2.016-.093 7.453.047 7.452.048.225-.952a31.13 31.13 0 00.421-2.404l.195-1.452.004-1.222.004-1.222-.212-.912-.212-.912-.351-.604a8.473 8.473 0 00-.755-1.07 6.001 6.001 0 00-.884-.803 13.07 13.07 0 00-1.148-.692l-.67-.355-1.17-.281-1.171-.281-1.442-.138-1.442-.137-1.34.087-1.339.087-1.608.308-1.608.307-1.005.4c-.552.221-1.396.623-1.875.894a13.19 13.19 0 00-1.474.979c-.332.268-.906.788-1.276 1.157-.37.368-.917 1.03-1.216 1.471a19.33 19.33 0 00-1.019 1.737 30.524 30.524 0 00-.756 1.602 32.265 32.265 0 00-.626 1.67c-.189.55-.486 1.603-.66 2.337a43.417 43.417 0 00-.53 2.687l-.214 1.352.002 1.987.002 1.988.204.868c.112.478.326 1.199.476 1.603.149.404.426 1.005.615 1.335.189.331.592.863.895 1.183.304.32.854.806 1.223 1.079a9.604 9.604 0 001.457.855l.788.357 1.098.265c.604.145 1.516.318 2.026.383.51.065 1.591.126 2.401.135zm2.524-18.815c-3.709 0-6.744-.026-6.744-.058 0-.033.158-.499.352-1.036a19.2 19.2 0 01.755-1.776l.403-.8.886-.878.886-.879.871-.415c.479-.228 1.112-.477 1.407-.552.295-.076 1.139-.176 1.875-.223l1.34-.085 1.029.131 1.029.132.748.341.747.342.41.44c.226.243.495.6.598.794l.187.353.124.782.123.783-.141 1.302-.142 1.302h-6.743zm40.081 18.816l1.474.016 1.674-.197c.921-.11 2.146-.29 2.723-.4a31.01 31.01 0 002.077-.493c.565-.159 1.076-.331 1.136-.382.059-.051.219-.657.354-1.347.136-.69.306-1.615.379-2.056.073-.44.111-.825.084-.853-.027-.03-.126.008-.219.082-.094.075-.752.35-1.461.613l-1.29.478-1.837.355-1.837.355-1.562-.054-1.562-.053-.887-.306-.888-.307-.685-.598-.686-.598-.454-.825-.455-.826-.217-1.105-.216-1.104.001-1.433.001-1.434.263-1.736.264-1.736.278-.935c.153-.514.327-1.115.385-1.336.059-.22.305-.851.546-1.402.242-.551.673-1.403.958-1.892l.519-.89.637-.659.637-.658.674-.417.675-.417.866-.266a16.169 16.169 0 011.871-.422l1.005-.156 1.473.074 1.474.074 1.742.347 1.741.348.709.263c.389.145.725.263.746.263.021 0 .114-.495.208-1.101.093-.606.259-1.603.369-2.216.11-.613.173-1.14.141-1.172-.032-.033-.556-.116-1.163-.185-.608-.069-2.259-.191-3.67-.272l-2.565-.147-1.808.138-1.809.139-1.34.28-1.339.28-.863.345c-.475.19-1.17.53-1.545.759-.375.228-.852.535-1.06.682-.209.147-.841.72-1.406 1.273l-1.026 1.007-.573.837c-.315.46-.86 1.42-1.211 2.132l-.638 1.295-.489 1.403a37.713 37.713 0 00-.835 2.804l-.346 1.403-.125 1.268-.125 1.27.001 1.669.001 1.67.127.97.126.972.402.999.401.999.463.722.464.723.737.723.737.723.779.41.78.411 1.024.284c.564.156 1.378.335 1.809.398.431.062 1.448.121 2.259.13h-.002zm22.037-.05l1.809-.05 1.139-.291 1.139-.291.736-.347a13.897 13.897 0 001.474-.838c.405-.27 1.033-.783 1.394-1.14.362-.357.898-.967 1.191-1.354.294-.388.552-.687.573-.666.022.022-.045.64-.15 1.373-.104.733-.19 1.709-.192 2.168l-.002.835h4.917l.076-1.904.075-1.903.351-2.47c.193-1.36.504-3.373.692-4.475a590.225 590.225 0 011.47-8.214l.36-1.937.012-1.672.012-1.673-.379-.773-.38-.773-.514-.493-.515-.492-.844-.427-.845-.427-1.259-.279-1.259-.28-1.733-.13-1.734-.132-2.232.138a81.206 81.206 0 00-3.841.332l-1.607.195-1.096.004-1.096.004-.159.768a60.763 60.763 0 01-.542 2.23c-.21.804-.362 1.481-.338 1.505.023.024.609-.109 1.302-.294.692-.186 2.163-.492 3.268-.68l2.01-.34 1.809-.075 1.808-.074 1.165.203 1.165.204.778.382.777.383.436.647.435.647-.006 1.02-.006 1.02-.231 1.12-.231 1.119-4.82.017-4.821.017-1.577.432c-.868.237-1.829.552-2.136.7-.306.147-.613.268-.681.268-.069 0-.585.285-1.147.634l-1.023.634-.806.802c-.443.44-1.009 1.102-1.258 1.47-.249.367-.653 1.134-.899 1.704l-.446 1.038-.204 1.166-.205 1.167v2.447l.196 1.019.195 1.019.363.664c.2.366.566.901.814 1.19l.451.525.801.485.801.486.917.258a17.99 17.99 0 001.707.383l.789.124 1.808-.051h-.001zm1.675-3.734l-1.072.056-.71-.18c-.39-.1-.982-.32-1.316-.492l-.607-.31-.331-.393a6.26 6.26 0 01-.618-.942l-.287-.55-.056-1.284-.057-1.284.228-.779c.124-.428.417-1.171.651-1.651l.424-.873.812-.804.812-.804.863-.414.862-.414 1.072-.254 1.072-.254h6.698l.212.087.212.088-.178 1.048a30.666 30.666 0 01-.52 2.316 26.476 26.476 0 01-.737 2.28c-.217.556-.395 1.048-.395 1.092 0 .045-.22.45-.49.9l-.489.82-.803.793c-.442.437-.852.794-.912.794-.059 0-.33.15-.602.334l-.493.334-1.087.342-1.086.342-1.072.056zm43.609 3.782l1.272.016 1.206-.195c.663-.107 1.507-.28 1.876-.384a9.916 9.916 0 001.473-.6l.804-.41.692-.607.691-.606.729-.969c.4-.532.763-1.058.806-1.168l.077-.2-.067.667c-.037.367-.121.968-.186 1.336a26.334 26.334 0 00-.206 1.57l-.088.9h5.256v-1.802l.4-3.406c.22-1.873.546-4.368.724-5.543.178-1.175.452-2.858.61-3.74.157-.881.436-2.474.62-3.54.184-1.064.515-2.927.737-4.14.221-1.211.576-3.135.788-4.273l.732-3.94c.191-1.029.533-2.832.759-4.007.227-1.176.559-2.828.737-3.673.178-.845.324-1.581.323-1.636v-.1h-5.734l-.085.834c-.047.46-.266 1.977-.488 3.373-.221 1.395-.583 3.62-.803 4.941-.22 1.323-.432 2.605-.471 2.85l-.072.445-.226-.096c-.124-.053-.799-.24-1.499-.415l-1.273-.318-1.741-.135-1.742-.136-1.474.137-1.473.137-1.34.338-1.34.338-1.273.618-1.272.62-.938.691-.938.693-.81.865a19.567 19.567 0 00-1.43 1.75l-.62.885-.728 1.51c-.401.831-.888 1.932-1.083 2.446-.196.514-.54 1.654-.765 2.533l-.411 1.598-.202 2.075-.202 2.075.152 1.67.152 1.669.179.6c.099.331.307.92.462 1.31l.283.707.516.696.516.696.589.481.589.481.803.398a10.96 10.96 0 001.648.628c.465.127 1.218.28 1.675.339a22.57 22.57 0 002.103.123h.001zm2.284-3.789l-1.012.054-.682-.123a7.45 7.45 0 01-1.336-.401l-.652-.28-.55-.448-.549-.448-.408-.78-.408-.779-.186-.868-.186-.868.016-1.736.016-1.736.216-1.536.216-1.536.335-1.069c.185-.588.337-1.142.338-1.232.001-.09.183-.57.405-1.068a36.42 36.42 0 01.823-1.707c.231-.44.663-1.127.96-1.526.296-.4.825-1 1.174-1.336.35-.336.905-.776 1.235-.978l.6-.368 1.053-.364 1.054-.363 2.21-.001h2.211l1.273.352c.7.193 1.443.418 1.651.499l.379.147-.074.366c-.041.202-.2 1.088-.354 1.97a574.088 574.088 0 01-1.414 7.68c-.19.991-.466 2.253-.612 2.804-.147.551-.354 1.314-.46 1.696a11.045 11.045 0 01-.562 1.47 11.668 11.668 0 01-.788 1.375c-.231.33-.622.789-.869 1.018-.246.229-.779.636-1.185.905l-.737.488-1.065.337-1.065.337-1.011.053zm-197.176 3.14h3.255l.233-1.436c.129-.79.38-2.307.558-3.373l.737-4.407a612.218 612.218 0 011.424-8.273c.178-.987.357-1.828.399-1.87l.075-.075h17.506l.097.097.097.097-.152.772a417.4 417.4 0 00-.548 2.908c-.219 1.175-.586 3.159-.816 4.407a640.57 640.57 0 01-.74 3.94c-.177.919-.534 2.842-.794 4.274-.26 1.433-.473 2.68-.473 2.772l.002.167h6.537l.145-.835c.08-.46.207-1.286.284-1.837.077-.55.262-1.722.412-2.604.15-.881.449-2.624.664-3.873.216-1.25.577-3.383.803-4.742.226-1.359.56-3.342.744-4.407.183-1.065.51-2.868.727-4.007a1079.46 1079.46 0 001.545-8.348c.186-1.028.525-2.891.754-4.14a95.63 95.63 0 01.641-3.239l.226-.968h-6.62l-.09.634c-.049.35-.209 1.326-.354 2.17-.146.845-.412 2.348-.59 3.34-.179.991-.505 2.885-.725 4.207-.22 1.322-.5 3.072-.623 3.89l-.224 1.485-4.858.098-4.858.098-4.07-.096c-2.237-.053-4.08-.107-4.096-.12-.015-.013.061-.532.17-1.153.108-.622.313-1.701.455-2.4.142-.697.411-2.08.599-3.071.187-.992.399-2.224.47-2.738.073-.514.224-1.37.336-1.903.112-.533.326-1.655.474-2.493.148-.839.306-1.62.351-1.736l.082-.212h-6.566l-.21 1.169c-.116.642-.27 1.559-.343 2.036-.073.478-.317 2.01-.543 3.406-.226 1.396-.56 3.47-.742 4.608l-.735 4.608a279.47 279.47 0 01-.818 4.808 605.526 605.526 0 01-.728 3.94l-.739 3.873a340.86 340.86 0 01-.75 3.807 105.18 105.18 0 00-.447 2.27c-.063.368-.27 1.427-.46 2.354-.19.928-.346 1.784-.346 1.904v.217h3.256zm36.036 0h2.881l.082-.212c.044-.116.081-.42.081-.677 0-.256.181-1.589.403-2.96a1172.939 1172.939 0 011.554-9.374c.182-1.065.505-2.838.718-3.94.214-1.102.541-2.815.728-3.806.187-.992.555-2.879.817-4.193.262-1.314.51-2.442.55-2.507l.072-.117-2.914.036-2.914.036-.243 1.736c-.133.955-.425 2.848-.648 4.207-.224 1.36-.561 3.433-.75 4.608-.19 1.175-.52 3.069-.735 4.207l-.73 3.873a522.12 522.12 0 01-1.412 7.212 47.307 47.307 0 01-.34 1.57l-.082.3h2.882zm67.398 0h2.861l.086-1.207c.047-.664.209-2 .359-2.972.151-.97.459-2.907.686-4.303.226-1.395.646-3.718.934-5.162.288-1.444.613-2.879.723-3.189.11-.31.199-.646.199-.747 0-.1.215-.649.478-1.219.263-.57.753-1.441 1.089-1.938l.61-.902.818-.755.817-.754 1.008-.48 1.008-.48 1.541.008 1.541.008.757.226c.417.124.793.225.837.225.044 0 .08-.142.08-.315 0-.174.151-1.054.335-1.955.184-.902.335-1.678.335-1.724 0-.047-.437-.217-.971-.38-.534-.161-1.273-.33-1.641-.376l-.67-.083-.871.154a11.3 11.3 0 00-1.583.414 9.003 9.003 0 00-1.436.723c-.399.254-1.019.75-1.378 1.1a15.72 15.72 0 00-1.342 1.574c-.379.514-.776 1.055-.881 1.202l-.192.267.116-.534a79.77 79.77 0 00.397-2.137c.154-.881.312-1.708.351-1.836l.071-.234h-5.109v.322c0 .177-.151 1.244-.335 2.37-.184 1.127-.488 3.01-.675 4.186a877.315 877.315 0 01-.738 4.541 236.761 236.761 0 01-.738 4.208 863.522 863.522 0 01-2.147 11.002c-.105.504-.19.97-.19 1.034v.118h2.86zm67.901 0h2.925V95.21l.337-2.213c.185-1.217.491-3.145.679-4.283.189-1.139.423-2.581.522-3.206.099-.624.36-1.976.581-3.005.221-1.028.496-2.14.613-2.47.116-.331.212-.678.213-.771.001-.094.25-.694.554-1.334l.552-1.164.728-.965.729-.964.797-.598a11.563 11.563 0 011.566-.968l.77-.372 1.675.011 1.674.012.659.211.66.211.111-.068.111-.069.006-.426c.003-.234.146-1.107.318-1.938l.313-1.512-.352-.138a20.788 20.788 0 00-1.022-.347l-.67-.21-1.206.002-1.205.003-.983.345-.983.345-.737.443-.738.444-.959 1.001-.96 1.002-.515.777c-.284.428-.533.758-.555.735-.021-.024.133-.914.343-1.98.21-1.065.384-2.071.387-2.237l.006-.3h-4.957v.085c0 .047-.124.903-.275 1.903-.151 1-.454 2.93-.674 4.29-.219 1.358-.58 3.552-.8 4.874a265.898 265.898 0 01-.74 4.207 716.728 716.728 0 01-1.529 7.947l-.647 3.24-.247 1.235h2.925zM68.269 64.403l.814.003.646-.22.647-.22.572-.578.572-.579.302-.77.301-.772.011-1.135.01-1.135-.267-.444-.268-.443-.466-.288-.467-.288h-2.014l-.686.306-.686.306-.398.425-.398.426-.313.734-.312.735-.06 1.144-.058 1.144.29.569.292.569.561.254.562.254.813.003z" fill="#B3131B"/></svg>