<svg xmlns="http://www.w3.org/2000/svg" width="32" height="32" viewBox="0 0 36 36"><g fill="#4AB7A8"><path d="M9.125 26.761a4.717 4.717 0 0 0 3.362-1.392l4.853-4.853a.926.926 0 0 1 1.278 0l4.872 4.873a4.726 4.726 0 0 0 3.364 1.39h.957l-6.15 6.147a4.911 4.911 0 0 1-6.953 0l-6.175-6.165h.592zM26.854 9.588a4.724 4.724 0 0 0-3.362 1.391l-4.865 4.875a.904.904 0 0 1-1.277 0L12.497 11a4.715 4.715 0 0 0-3.362-1.392h-.602l6.175-6.169a4.917 4.917 0 0 1 6.953 0l6.15 6.148h-.957z"/><path d="M3.442 14.707l3.672-3.673h2.011c.882.001 1.727.35 2.353.97l4.853 4.853a2.327 2.327 0 0 0 3.3 0l4.872-4.872a3.346 3.346 0 0 1 2.353-.97h2.384l3.688 3.688a4.917 4.917 0 0 1 0 6.953l-3.688 3.688h-2.386c-.881 0-1.727-.35-2.353-.97L19.63 19.5a2.389 2.389 0 0 0-3.3 0l-4.853 4.853c-.626.62-1.471.97-2.353.97h-2.01L3.442 21.66a4.915 4.915 0 0 1 0-6.953z"/></g></svg>