<?xml version="1.0" encoding="UTF-8"?>
<svg width="48px" height="48px" viewBox="0 0 48 48" version="1.1" xmlns="http://www.w3.org/2000/svg"
     xmlns:xlink="http://www.w3.org/1999/xlink">
    <!-- Generator: Sketch 47.1 (45422) - http://www.bohemiancoding.com/sketch -->
    <title>mMrcado Pago</title>
    <desc>Created with Sketch.</desc>
    <defs></defs>
    <g fill="none" fillRule="evenodd">
        <circle fill="#EEE" cx="24" cy="24" r="24"/>
        <g transform="translate(10 14)">
            <path d="M28.166 9.397c0-5.171-6.29-9.386-14.05-9.386C6.356.01.066 4.226.066 9.397l-.002.55c0 5.485 5.498 9.928 14.05 9.928 8.604 0 14.052-4.442 14.052-9.928v-.55z"
                  fill="#2C3279"/>
            <path d="M14.118 18.219c-7.46 0-13.51-3.952-13.51-8.827S6.659.565 14.119.565c7.462 0 13.51 3.952 13.51 8.827s-6.048 8.827-13.51 8.827z"
                  fill="#3499ED"/>
            <path d="M9.633 6.607c-.008.014-.142.157-.055.271.213.278.872.438 1.538.285.396-.09.904-.504 1.397-.903.533-.432 1.062-.866 1.595-1.038.563-.184.924-.105 1.162-.031.262.08.57.255 1.06.631.925.71 4.642 4.024 5.284 4.597.517-.239 2.816-1.25 5.94-1.953-.272-1.7-1.285-3.257-2.821-4.531-2.141.918-4.758 1.398-7.317.121-.013-.005-1.398-.675-2.764-.642-2.03.048-2.91.946-3.84 1.896l-1.18 1.297z"
                  fill="#FFF"/>
            <path d="M21.463 10.779c-.044-.04-4.37-3.906-5.35-4.659-.568-.435-.884-.545-1.215-.589-.172-.022-.41.01-.577.057-.456.127-1.052.534-1.582.963-.548.445-1.065.865-1.544.975-.613.14-1.361-.025-1.702-.261a.765.765 0 0 1-.283-.316c-.126-.299.107-.538.145-.578l1.194-1.319c.139-.141.279-.283.422-.422a7.59 7.59 0 0 0-1.089.25c-.432.124-.848.243-1.27.242-.175 0-1.117-.157-1.295-.207-1.081-.302-2.03-.596-3.446-1.272C2.174 4.934 1.038 6.548.711 8.325c.243.066.636.185.802.223 3.84.872 5.037 1.77 5.254 1.959.235-.268.574-.437.953-.437.425.001.808.22 1.04.556.22-.177.524-.329.916-.329.178 0 .363.034.55.099.433.152.657.446.772.713.146-.067.325-.116.535-.116.207 0 .422.049.639.144.708.31.819 1.021.754 1.557.05-.006.102-.009.153-.009.84.001 1.523.698 1.523 1.556 0 .266-.067.515-.183.735.229.13.811.427 1.323.361.408-.052.564-.195.62-.275.037-.055.077-.12.04-.166l-1.084-1.23s-.178-.172-.12-.239c.062-.068.172.03.25.097.552.47 1.225 1.18 1.225 1.18.011.008.056.098.305.144.215.039.594.016.857-.205a1.3 1.3 0 0 0 .188-.196c-.005.003-.008.008-.012.01.277-.363-.03-.73-.03-.73l-1.266-1.45s-.181-.171-.12-.24c.055-.06.172.03.25.098.402.342.968.922 1.51 1.465.106.079.583.38 1.215-.043.382-.257.46-.572.449-.81-.027-.315-.268-.54-.268-.54l-1.728-1.774s-.183-.16-.118-.24c.053-.068.171.03.249.096.55.47 2.041 1.866 2.041 1.866.021.016.536.39 1.173-.024a.803.803 0 0 0 .385-.632c.022-.452-.29-.72-.29-.72"
                  fill="#FFF"/>
            <path d="M13.079 13.029c-.268-.003-.561.16-.6.136-.02-.015.017-.125.042-.188.026-.063.379-1.148-.482-1.524-.658-.29-1.06.036-1.2.183-.035.038-.052.035-.056-.014-.013-.195-.099-.724-.667-.901-.812-.254-1.334.325-1.467.534a.947.947 0 0 0-.93-.84c-.52 0-.943.43-.943.962s.422.963.942.963a.925.925 0 0 0 .652-.269c.005.005.008.014.005.033-.04.238-.113 1.103.774 1.455.356.141.659.036.91-.143.074-.054.087-.031.076.04-.032.223.008.7.663.97.497.207.792-.004.985-.187.084-.078.107-.065.111.056a1.194 1.194 0 0 0 1.183 1.156c.656 0 1.187-.54 1.187-1.21 0-.67-.53-1.205-1.185-1.212"
                  fill="#FFF"/>
            <path d="M13.079 15.365a1.103 1.103 0 0 1-1.099-1.073c-.001-.052-.006-.189-.12-.189-.046 0-.087.03-.134.072-.13.124-.296.25-.54.25a.928.928 0 0 1-.355-.08c-.627-.259-.636-.699-.61-.876.006-.047.009-.096-.023-.134l-.039-.036h-.039c-.032 0-.065.014-.109.046a.905.905 0 0 1-.532.193.811.811 0 0 1-.297-.06c-.826-.328-.761-1.124-.72-1.363.005-.049-.007-.086-.037-.112l-.058-.048-.054.053a.842.842 0 0 1-.593.245.868.868 0 0 1-.858-.876c0-.483.386-.876.859-.875.427 0 .791.328.846.764l.03.236.126-.2c.014-.023.36-.558.997-.557.121 0 .247.02.373.06.507.158.593.628.607.824.009.114.088.12.104.12.044 0 .076-.029.1-.053a.857.857 0 0 1 .63-.272c.15 0 .309.036.473.108.807.354.441 1.402.437 1.412-.07.174-.073.25-.007.295l.031.016h.024c.037 0 .082-.017.156-.042.11-.04.276-.098.431-.097a1.124 1.124 0 0 1 1.102 1.125c0 .62-.495 1.124-1.102 1.124m8.551-5.049c-1.332-1.188-4.413-3.923-5.247-4.563-.477-.366-.802-.56-1.087-.646a1.762 1.762 0 0 0-.534-.085c-.212 0-.44.04-.678.117-.54.174-1.077.61-1.596 1.032l-.027.021c-.484.393-.984.8-1.363.886a2.255 2.255 0 0 1-.504.057c-.424 0-.805-.125-.948-.31-.023-.032-.008-.081.047-.153l.007-.01 1.173-1.29c.918-.938 1.785-1.824 3.782-1.87a3.19 3.19 0 0 1 .1-.002c1.243 0 2.485.569 2.625.635 1.165.58 2.368.875 3.577.876 1.26 0 2.56-.318 3.927-.96a10.787 10.787 0 0 0-.475-.385c-1.2.532-2.345.8-3.449.8-1.127 0-2.254-.277-3.347-.822-.058-.029-1.43-.69-2.857-.69l-.113.001c-1.677.04-2.622.649-3.257 1.182-.618.015-1.151.167-1.626.302-.423.12-.788.225-1.145.225-.147 0-.411-.014-.435-.015-.41-.013-2.475-.53-4.118-1.165-.168.12-.329.246-.486.374 1.716.718 3.805 1.274 4.464 1.318.183.012.379.033.574.034.436 0 .871-.125 1.293-.246.248-.071.523-.149.812-.205l-.231.234L9.296 6.31c-.094.096-.297.354-.163.672a.85.85 0 0 0 .313.355c.284.195.793.327 1.265.328.179 0 .348-.018.504-.054.5-.115 1.023-.54 1.578-.991.442-.359 1.07-.815 1.551-.948.135-.038.3-.061.433-.061.04 0 .077.002.112.007.317.04.625.151 1.173.572.978.75 5.305 4.616 5.348 4.655a.857.857 0 0 1 .26.65c-.011.224-.133.425-.346.563-.185.12-.376.181-.568.181a.92.92 0 0 1-.502-.148c-.016-.013-1.498-1.402-2.044-1.868-.087-.074-.171-.14-.257-.14a.14.14 0 0 0-.113.054c-.086.108.01.258.124.357l1.732 1.777c.002.002.216.207.239.48.014.294-.124.54-.411.733a1.1 1.1 0 0 1-.614.207.88.88 0 0 1-.494-.153l-.249-.25c-.454-.456-.922-.928-1.266-1.22-.083-.072-.173-.137-.258-.137a.145.145 0 0 0-.109.047c-.039.044-.066.124.031.257.04.054.088.1.088.1l1.264 1.449c.01.013.26.316.028.619l-.045.058a1.373 1.373 0 0 1-.117.115c-.216.181-.504.2-.618.2a.949.949 0 0 1-.17-.015c-.125-.022-.209-.058-.25-.107l-.015-.016c-.069-.073-.706-.737-1.233-1.187-.07-.06-.156-.134-.246-.134a.149.149 0 0 0-.114.052c-.104.117.052.291.119.355l1.078 1.214a.26.26 0 0 1-.041.074c-.039.055-.17.188-.56.238a1.064 1.064 0 0 1-.144.01c-.403 0-.833-.2-1.054-.32.1-.218.153-.458.153-.698 0-.906-.72-1.644-1.608-1.644l-.058.001c.03-.414-.028-1.197-.815-1.542a1.664 1.664 0 0 0-.672-.151c-.172 0-.338.03-.493.091a1.362 1.362 0 0 0-.787-.683 1.732 1.732 0 0 0-.577-.104c-.328 0-.63.099-.9.295a1.351 1.351 0 0 0-1.057-.522c-.359 0-.704.147-.96.406-.336-.262-1.667-1.126-5.229-1.952-.172-.04-.568-.156-.81-.228a5.91 5.91 0 0 0-.092.597s.657.16.786.19c3.64.826 4.842 1.684 5.045 1.846a1.422 1.422 0 0 0-.105.535c0 .768.611 1.393 1.363 1.394.085 0 .168-.008.25-.023.114.565.476.993 1.03 1.213.16.063.324.096.485.096.104 0 .208-.013.31-.04.103.265.332.596.847.809.18.074.36.113.535.113.143 0 .283-.026.416-.076a1.61 1.61 0 0 0 1.487 1.019c.433 0 .849-.18 1.152-.499.26.148.807.414 1.361.415.072 0 .139-.005.206-.013.55-.071.806-.29.924-.462a.7.7 0 0 0 .056-.094c.13.038.273.07.436.07.3 0 .589-.105.88-.322.286-.21.49-.513.519-.77l.002-.012c.096.02.195.031.294.031.31 0 .613-.098.904-.293.56-.375.658-.865.648-1.186.098.02.199.031.298.031.29 0 .576-.089.847-.266.348-.227.557-.574.589-.978a1.344 1.344 0 0 0-.187-.79c.939-.413 3.086-1.213 5.613-1.795a5.964 5.964 0 0 0-.078-.595 31.722 31.722 0 0 0-5.913 1.962"
                  fill="#2C3279"/>
        </g>
    </g>
</svg>