<svg width="61" height="32" viewBox="0 0 268 140" fill="none" xmlns="http://www.w3.org/2000/svg"><g clip-path="url(#clip0_313_35)" fill-rule="evenodd" clip-rule="evenodd"><path d="M0 0h268.377v140H0V0z" fill="#8600C9"/><path d="M43.821 40.048h-3.546c-6.516 0-11.848 5.332-11.848 11.849v44.665a3.184 3.184 0 003.175 3.175h11.815a3.184 3.184 0 003.175-3.175V42.82h10.4c4.909 0 8.935 4.026 8.935 8.934v44.808a3.184 3.184 0 003.175 3.175h11.816a3.184 3.184 0 003.175-3.175V51.135c0-13.574-11.107-24.68-24.682-24.68h-6.818c-4.825 0-8.772 3.947-8.772 8.77v4.823zm15.59-10.823c12.046 0 21.91 9.865 21.91 21.91v45.427a.412.412 0 01-.403.404H69.102a.412.412 0 01-.404-.404V51.755c0-6.44-5.268-11.707-11.706-11.707h-10.4v-4.822c0-3.295 2.706-6 6-6h6.82zM43.821 42.82h-3.546c-4.987 0-9.077 4.09-9.077 9.078v44.665c0 .217.187.404.404.404h11.815a.412.412 0 00.404-.404V42.82zm86.414 57.132h3.547c6.516 0 11.848-5.332 11.848-11.849V43.438a3.184 3.184 0 00-3.175-3.175h-11.816a3.184 3.184 0 00-3.175 3.175v53.743h-10.4c-4.908 0-8.935-4.026-8.935-8.935V43.438a3.184 3.184 0 00-3.175-3.175H93.139a3.184 3.184 0 00-3.175 3.175v45.427c0 13.575 11.106 24.681 24.681 24.681h6.819c4.824 0 8.771-3.947 8.771-8.772v-4.822zm-15.59 10.823c-12.045 0-21.91-9.865-21.91-21.91V43.438c0-.217.187-.404.404-.404h11.815c.217 0 .404.187.404.404v44.808c0 6.438 5.268 11.706 11.706 11.706h10.4v4.822c0 3.295-2.706 6.001-6 6.001h-6.819zm15.59-13.594h3.547c4.986 0 9.077-4.09 9.077-9.078V43.438a.412.412 0 00-.404-.404h-11.816a.412.412 0 00-.404.404v53.743zm28.573-35.206h2.618V74.79a8.231 8.231 0 014.451-1.272c6.415 0 9.557 6.226 9.557 12.153 0 5.782-2.531 12.11-10.342 12.11-2.248 0-4.432-.523-6.284-1.592V61.975zm2.618 14.71v18.827a8.589 8.589 0 003.383.677c5.834 0 7.724-5.52 7.724-10.565 0-5.171-2.347-10.603-7.137-10.603-1.861 0-3.197.902-3.97 1.663zm33.798 19.393V79.32c0-6.578-10.164-7.172-14.424-4.146l1.179 1.658c2.422-2.422 10.823-2.26 10.823 2.313v3.01c-6.072 1.627-13.05.699-13.05 8.903 0 6.723 8.778 8.884 15.472 5.02zm-2.422-12.492v11.785c-5.003 1.839-10.629.014-10.629-4.654 0-6.347 5.55-5.63 10.379-6.888l.25-.243zm9.009 14.402V75.106c4.819-2.894 14.687-2.699 15.753 3.775v19.107h-2.792V79.132c-.575-5.71-7.914-4.32-10.627-3.077v21.933h-2.334zm22.277-35.768h2.531v22.867l10.189 12.9h3.142L228.844 85.11l9.405-11.215h-2.815l-8.815 11.193v12.9h-2.531V62.22z" fill="#fff"/></g><defs><clipPath id="clip0_313_35"><path fill="#fff" d="M0 0h268v140H0z"/></clipPath></defs></svg>