<?xml version="1.0" encoding="UTF-8"?>
<svg width="48px" height="48px" viewBox="0 0 48 48" version="1.1" xmlns="http://www.w3.org/2000/svg" xmlns:xlink="http://www.w3.org/1999/xlink">
    <title>pix</title>
    <g id="pix" stroke="none" stroke-width="1" fill="none" fill-rule="evenodd">
        <g id="Group-61">
            <path d="M24,0.5 C30.4893458,0.5 36.3643458,3.13032709 40.6170094,7.38299064 C44.8696729,11.6356542 47.5,17.5106542 47.5,24 C47.5,30.4893458 44.8696729,36.3643458 40.6170094,40.6170094 C36.3643458,44.8696729 30.4893458,47.5 24,47.5 C17.5106542,47.5 11.6356542,44.8696729 7.38299064,40.6170094 C3.13032709,36.3643458 0.5,30.4893458 0.5,24 C0.5,17.5106542 3.13032709,11.6356542 7.38299064,7.38299064 C11.6356542,3.13032709 17.5106542,0.5 24,0.5 Z" id="Oval-Copy-2" stroke="#EEEEEE"></path>
            <g id="icono_dinero_en_cuenta" transform="translate(17.000000, 11.000000)">
                <rect id="Rectangle-56" fill="#5697FA" x="4.26325641e-13" y="0" width="14" height="26" rx="4.62"></rect>
                <rect id="Rectangle-55" fill="#0864EE" x="4.19761448e-13" y="5" width="14" height="16"></rect>
                <rect id="Rectangle-path" fill="#0864EE" x="5" y="2" width="4" height="1" rx="0.5"></rect>
                <circle id="Oval-25" fill="#0864EE" cx="7" cy="23" r="1"></circle>
            </g>
        </g>
        <rect id="Rectangle" fill="#FFFFFF" x="18" y="17" width="12" height="14"></rect>
        <g id="Group" transform="translate(18.000000, 18.000000)" fill="#3483FA" fill-rule="nonzero">
            <g id="Icons-/-03-Pagar-y-Cobrar-/-QR-Code-/-24">
                <path d="M8.16,6.72 L8.16,8.16 L10.32,8.16 L10.32,6.72 L11.04,6.72 L11.04,8.16 L10.32,8.16 L10.32,8.889 L11.04,8.8896 L11.04,9.6 L10.32,9.599 L10.32,10.32 L11.04,10.32 L11.04,11.04 L10.32,11.04 L10.32,10.32 L8.16,10.32 L8.16,11.04 L7.44,11.04 L7.44,10.32 L8.16,10.32 L8.16,8.16 L7.44,8.16 L7.44,6.72 L8.16,6.72 Z M7.44,8.16 L7.44,9.6 L6.72,9.599 L6.72,11.04 L5.28,11.04 L5.28,10.32 L6,10.32 L6,9.5952 L6.719,9.595 L6.72,8.16 L7.44,8.16 Z M4.56,7.44 L4.56,11.04 L0.96,11.04 L0.96,7.44 L4.56,7.44 Z M3.84,8.16 L1.68,8.16 L1.68,10.32 L3.84,10.32 L3.84,8.16 Z M6,8.8896 L6,9.6 L5.28,9.6 L5.28,8.8896 L6,8.8896 Z M9.6,8.88 L8.88,8.88 L8.88,9.6 L9.6,9.6 L9.6,8.88 Z M3.12,8.8896 L3.12,9.5952 L2.4,9.5952 L2.4,8.8896 L3.12,8.8896 Z M6,6.0096 L5.999,6.719 L6.72,6.72 L6.72,7.44 L5.999,7.439 L6,8.16 L5.28,8.16 L5.28,6.0096 L6,6.0096 Z M9.6,6.72 L9.6,7.4256 L8.88,7.4256 L8.88,6.72 L9.6,6.72 Z M3.12,5.28 L3.12,6 L3.84,6 L3.84,5.28 L4.56,5.28 L4.56,6.72 L2.4,6.72 L2.4,6 L1.68,6 L1.68,5.28 L3.12,5.28 Z M1.68,6.0096 L1.68,6.7152 L0.96,6.7152 L0.96,6.0096 L1.68,6.0096 Z M11.04,5.28 L11.04,6 L10.32,5.999 L10.32,6.7152 L9.6,6.7152 L9.6,5.999 L8.88,6 L8.88,5.28 L11.04,5.28 Z M6.72,3.8448 L6.72,5.28 L8.16,5.28 L8.16,6 L6.72,6 L6.72,5.28 L5.28,5.28 L5.28,4.56 L6,4.56 L6,3.8448 L6.72,3.8448 Z M4.56,0.96 L4.56,4.56 L0.96,4.56 L0.96,0.96 L4.56,0.96 Z M11.04,0.96 L11.04,4.56 L7.44,4.56 L7.44,0.96 L11.04,0.96 Z M6.72,0.96 L6.72,1.68 L6,1.68 L6,2.399 L6.72,2.4 L6.72,3.12 L6,3.119 L6,3.8448 L5.28,3.8448 L5.28,0.96 L6.72,0.96 Z M3.84,1.68 L1.68,1.68 L1.68,3.84 L3.84,3.84 L3.84,1.68 Z M10.32,1.68 L8.16,1.68 L8.16,3.84 L10.32,3.84 L10.32,1.68 Z M3.12,2.4 L3.12,3.12 L2.4,3.12 L2.4,2.4 L3.12,2.4 Z M9.6,2.4 L9.6,3.12 L8.88,3.12 L8.88,2.4 L9.6,2.4 Z" id="🎨Icon-color"></path>
            </g>
        </g>
    </g>
</svg>