<svg width="31" height="32" viewBox="0 0 52 53" fill="none" xmlns="http://www.w3.org/2000/svg"><path d="M1.435 19.154h49.13v15.663H1.435V19.154z" fill="#FE0000"/><path d="M10.75 21.613c-.027.244-.016.506.054.717.095.285.226.49.707 1.116.508.661.67.9.792 1.243.098.28.1.443.058.697.445.085 1.175.321 1.664.614.453.28.783.64.904.992.071.207.068.53-.008.73a1.55 1.55 0 01-.32.516c-.585.642-1.744 1.102-3.14 1.249-.31.032-1.066.055-1.326.04-1.865-.108-3.365-.753-3.792-1.628-.177-.365-.173-.678.014-1.038.155-.297.577-.664 1.075-.934a8.47 8.47 0 011.409-.537c.023.314.635 1.065.838 1.33.442.58.617.856.742 1.077.075.132.117.217.096.47 0 0 .17-.154.234-.285.083-.17.113-.341.097-.562a1.636 1.636 0 00-.191-.689c-.124-.252-.3-.508-.637-.922-.476-.583-.652-.903-.724-1.32-.081-.462.049-.953.315-1.192.058-.052.15-.102.15-.102s-.007.119-.007.254c0 .286.033.435.142.653.137.27.325.524.904 1.212.512.61.67.919.67 1.306v.186s.136-.103.199-.198c.198-.3.23-.767.079-1.18-.104-.284-.272-.543-.768-1.166-.505-.635-.717-1.144-.717-1.568 0-.424.092-.828.487-1.08zm9.49 6.242c.012-.141 0-.28-.014-.355-.061-.292-.277-.586-.59-.802a6.282 6.282 0 00-.672-.349c-.59-.272-.755-.37-.902-.535a.717.717 0 01-.198-.534c0-.153.008-.2.058-.307.16-.35.56-.535 1.025-.477.275.035.419.097.58.248.17.158.255.341.302.642l.014.17h.254l-.021-1.166-.085-.021a10.821 10.821 0 00-.71-.125c-.334-.042-.469-.047-.665-.024-.381.044-.696.188-.934.428a1.212 1.212 0 00-.377.833c-.019.339.09.62.331.86.203.201.29.254.917.552.803.382.985.495 1.107.782.106.25.113.529.004.752-.28.572-1.16.721-1.708.29a1.13 1.13 0 01-.403-.655l-.026-.133h-.217l.039 1.117s.417.112.611.132c.147.016.294.044.442.044.296 0 .434.04.741-.063.318-.106 1.018-.318 1.097-1.304zm1.956-1.833c.339 0 .635.148.776.367a.85.85 0 01.135.502v1.61c0 .191.138.253.338.186l.15-.058v.212l-.743.324c-.086.038-.145-.05-.186-.211l-.047-.156-.123.097a1.159 1.159 0 01-.746.264c-.32.001-.53-.043-.738-.375a.787.787 0 01-.026-.636c.096-.215.284-.326 1.077-.632l.535-.201v-.149c0-.55-.148-.72-.339-.826-.153-.085-.357-.063-.551.063-.16.105-.21.282-.127.464.064.14.042.096.042.1l-.435.23s-.075-.129-.097-.2c-.1-.327.028-.512.52-.782.257-.142.408-.193.584-.193zm.402 1.526s-.697.294-.831.363c-.107.054-.23.151-.27.23a.48.48 0 00.02.403.54.54 0 00.233.233.8.8 0 00.234.043c.165 0 .34-.069.517-.217l.097-.08v-.975zm2.183-1.526v.57l.146-.138c.316-.298.617-.432.85-.432.53 0 1.018.466.997 1.123v1.526c0 .17.042.276.212.276h.275v.212H25.8v-.212h.212c.17 0 .233-.106.233-.276v-1.526c0-.318-.117-.477-.212-.572-.127-.127-.282-.163-.509-.149-.176.012-.357.105-.564.273l-.135.109v1.971c0 .106.042.17.148.17h.276v.212h-1.442v-.212h.191c.17 0 .297-.106.297-.276V27.04c0-.424-.127-.55-.488-.36v-.227c.233-.07.657-.282.89-.43h.085zm4.09 3.137c.192 0 .237-.021.414-.171l.35-.296-.085-.148-.156.083c-.233.124-.416.15-.65.044-.198-.09-.317-.402-.317-.572v-1.716h.975l.106-.298h-1.081v-.975h-.106c-.255.467-.636.912-1.102 1.187v.085h.678V28.1c0 .403.148.7.382.869.22.16.36.19.593.19zm2.248-3.137c.339 0 .635.148.776.367a.85.85 0 01.135.502v1.61c0 .191.138.253.338.186l.15-.058v.212l-.743.324c-.086.038-.145-.05-.186-.211l-.046-.156-.124.097a1.16 1.16 0 01-.745.264c-.32.001-.53-.043-.738-.375a.787.787 0 01-.026-.636c.095-.215.284-.326 1.076-.632l.535-.201v-.149c0-.55-.148-.72-.339-.826-.153-.085-.357-.063-.55.063-.161.105-.21.282-.128.464.064.14.042.096.042.1l-.435.23s-.075-.129-.097-.2c-.1-.327.029-.512.52-.782.257-.142.408-.193.585-.193zm.402 1.526s-.697.294-.831.363c-.107.054-.23.151-.27.23a.48.48 0 00.02.403.54.54 0 00.233.233.8.8 0 00.234.043c.165 0 .34-.069.517-.217l.097-.08v-.975zm2.183-1.526v.57l.146-.138c.316-.298.617-.432.85-.432.53 0 1.018.466.997 1.123v1.526c0 .17.042.276.212.276h.275v.212h-1.462v-.212h.212c.17 0 .233-.106.233-.276v-1.526c0-.318-.117-.477-.212-.572-.127-.127-.282-.163-.509-.149-.176.012-.357.105-.564.273l-.135.109v1.971c0 .106.042.17.148.17h.276v.212h-1.442v-.212h.191c.17 0 .297-.106.297-.276V27.04c0-.424-.127-.55-.488-.36v-.227c.233-.07.657-.282.89-.43h.085zM40 28.798v-.212c-.233.106-.339.106-.419.052-.114-.077-.11-.221-.11-.221v-4.663h-.064a4.863 4.863 0 01-.996.487v.234c.17-.064.296-.098.402-.043.07.039.106.085.106.19v1.586l-.124-.05c-.25-.102-.379-.125-.681-.124-.253 0-.306.007-.456.057-.697.233-1.143.913-1.106 1.689.02.443.149.791.439 1.04.296.254.55.339.847.339.403 0 .636-.08.928-.279.09-.06.175-.124.175-.124.02.212.073.34.148.445l.911-.403zm-2.197-.038c-.396-.141-.684-.63-.72-1.223-.047-.741.364-1.26.998-1.26.266 0 .47.072.717.255l.122.09-.011 1.905-.136.083c-.231.14-.343.172-.617.181-.198.007-.264.001-.353-.03zm4.476.367a2.61 2.61 0 00.689-.307v-.212c-.234.17-.603.275-.933.275-.358 0-.636-.106-.827-.318-.281-.313-.36-.572-.409-1.208h2.232s0-.318-.127-.615c-.087-.203-.17-.36-.403-.508-.218-.14-.513-.198-.763-.2-.26-.001-.3.004-.441.055-.66.241-1.11.925-1.054 1.604.053.657.437 1.184 1.017 1.396.257.093.741.112 1.019.038zm-1.219-2.618c.148-.148.318-.233.594-.233.254 0 .423.064.593.233.127.128.19.233.218.594H40.8c.027-.255.112-.445.26-.594zm3.222-.487v.7c.111-.193.212-.319.402-.51a.686.686 0 01.488-.19c.106 0 .381.085.381.085v.635h-.106c-.042-.17-.19-.254-.402-.254-.276 0-.456.111-.567.278-.112.167-.154.252-.154.612v1.4c0 .105.042.169.148.169h.276v.212h-1.441v-.212h.19c.17 0 .297-.106.297-.276V27.04c0-.466-.17-.445-.466-.318v-.212c.275-.106.614-.254.869-.487h.085z" fill="#fff"/></svg>